<?xml version="1.0" standalone="no"?>
<!DOCTYPE svg PUBLIC "-//W3C//DTD SVG 20010904//EN"
 "http://www.w3.org/TR/2001/REC-SVG-20010904/DTD/svg10.dtd">
<svg version="1.0" xmlns="http://www.w3.org/2000/svg"
 viewBox="0 0 2600.000000 2600.000000"
 preserveAspectRatio="xMidYMid meet">
<metadata>
Created by potrace 1.15, written by Peter Selinger 2001-2017
</metadata>
<g transform="translate(0.000000,2600.000000) scale(0.100000,-0.100000)"
fill="#000000" stroke="none">
<path d="M13165 24559 c-318 -43 -608 -200 -803 -434 -37 -44 -423 -629 -857
-1299 -435 -670 -799 -1224 -810 -1231 -11 -7 -639 -178 -1395 -380 -756 -201
-1408 -377 -1448 -391 -250 -83 -486 -266 -634 -489 -76 -114 -114 -194 -156
-327 -43 -135 -57 -226 -56 -378 1 -253 70 -485 205 -685 30 -44 459 -580 955
-1190 495 -611 906 -1119 911 -1130 7 -14 -11 -417 -64 -1390 -40 -753 -74
-1440 -75 -1525 -1 -230 38 -395 140 -594 90 -176 252 -355 423 -469 311 -207
705 -263 1061 -151 46 14 331 123 633 241 303 118 560 219 573 224 l23 9 -19
-27 c-202 -287 -271 -388 -296 -438 -29 -56 -31 -67 -31 -170 0 -101 2 -115
29 -170 38 -76 120 -159 191 -191 92 -43 158 -47 568 -41 l378 7 -5 -58 c-35
-379 -38 -1181 -6 -1627 63 -885 158 -1492 460 -2920 249 -1179 324 -1634 372
-2245 16 -211 16 -832 -1 -1010 -64 -699 -197 -1266 -446 -1910 -54 -139 -69
-190 -73 -246 -8 -125 37 -234 134 -323 79 -72 144 -96 269 -95 86 0 108 4
157 26 66 31 149 104 183 163 31 52 131 312 206 534 217 641 340 1260 380
1919 15 244 6 864 -15 1102 -55 618 -135 1097 -357 2145 -317 1497 -405 2045
-471 2945 -18 243 -17 1102 1 1383 l14 217 621 0 c693 1 787 5 870 43 173 80
270 282 222 462 -19 74 -36 102 -183 308 -74 104 -133 190 -131 193 3 2 281
-99 618 -226 336 -127 652 -242 701 -255 387 -103 806 -8 1123 256 138 115
236 238 315 397 90 179 131 355 131 558 0 68 -34 756 -75 1530 -41 773 -72
1411 -68 1417 4 7 412 512 907 1122 495 611 924 1144 952 1185 145 210 216
445 216 705 -1 215 -45 397 -143 585 -139 268 -378 482 -659 590 -30 11 -694
192 -1475 401 -781 209 -1422 383 -1426 387 -3 4 -338 520 -744 1147 -923
1425 -855 1323 -955 1429 -184 193 -417 322 -674 371 -101 20 -299 27 -391 14z
m976 -2416 c430 -665 803 -1235 828 -1268 153 -201 390 -366 633 -439 46 -14
693 -188 1438 -387 745 -198 1363 -368 1373 -377 9 -8 17 -25 17 -36 0 -13
-346 -448 -917 -1151 -504 -622 -935 -1159 -958 -1195 -84 -130 -132 -239
-171 -395 -45 -176 -44 -249 40 -1814 73 -1348 76 -1415 59 -1433 -11 -13 -26
-18 -43 -15 -14 2 -639 235 -1390 517 -751 282 -1401 524 -1445 537 -230 68
-465 69 -700 4 -39 -11 -666 -252 -1394 -536 -1272 -496 -1324 -515 -1347
-500 -16 10 -24 25 -24 43 0 15 34 659 75 1432 41 773 75 1438 75 1479 0 112
-27 273 -67 390 -41 125 -74 191 -145 297 -29 43 -459 580 -956 1191 -496 612
-905 1120 -908 1128 -12 30 5 63 38 74 18 6 647 174 1398 375 751 201 1394
374 1430 386 231 76 459 246 611 455 20 28 382 583 804 1235 422 652 772 1191
777 1198 6 6 28 12 48 12 l38 0 783 -1207z m-773 -8646 l83 -33 253 -356 253
-356 -561 -7 c-308 -3 -611 -5 -672 -3 l-110 3 262 375 c227 326 267 377 300
392 55 25 97 21 192 -15z"/>
</g>
</svg>
